<svg width="83.477mm" height="107.43mm" version="1.1" viewBox="0 0 83.477 107.43" xmlns="http://www.w3.org/2000/svg">
 <text transform="scale(1.0173 .98299)" x="9.6361008" y="109.16354" fill="#000300" fill-opacity=".7098" font-family="Poppins" font-size="18.628px" font-weight="300" letter-spacing="0px" stroke-width=".4657" word-spacing="0px" style="font-feature-settings:normal;font-variant-caps:normal;font-variant-ligatures:normal;font-variant-numeric:normal;line-height:1.25" xml:space="preserve"><tspan x="9.6361008" y="109.16354" fill="#000300" fill-opacity=".7098" font-family="Poppins" font-size="18.628px" font-weight="300" stroke-width=".4657" style="font-feature-settings:normal;font-variant-caps:normal;font-variant-ligatures:normal;font-variant-numeric:normal">swarm</tspan></text>
 <path d="m19.548 64.037 19.635-11.34v22.68z" fill="#000301" fill-opacity=".76863"/>
 <path d="m-0.028364 75.337 19.635 11.34-1.11e-4 -22.679-19.635 11.34" fill="#000302" fill-opacity=".60784"/>
 <path d="m19.607 41.391-1.11e-4 22.68-19.635-11.34z" fill="#000201" fill-opacity=".90588"/>
 <path d="m19.548 41.391 19.635 11.34-19.635 11.34 1.11e-4 -22.68" fill="#000201" fill-opacity=".87451"/>
 <path d="m-0.028253 52.697v22.68l19.635-11.34z" fill="#000301" fill-opacity=".76863"/>
 <path d="m19.548 86.676 19.635-11.34-19.635-11.34 1.11e-4 22.679" fill="#000301" fill-opacity=".7098"/>
 <path d="m22.131 36.962 19.635 11.34-1.1e-4 -22.679-19.635 11.34" fill="#000302" fill-opacity=".60784"/>
 <path d="m41.769 3.0092-1.1e-4 22.68-19.635-11.34z" fill="#000201" fill-opacity=".90588"/>
 <g fill="#000301">
  <path d="m22.131 14.315v22.68l19.635-11.34z" fill-opacity=".76863"/>
  <path d="m41.711 48.296 19.635-11.34-19.635-11.34 1.1e-4 22.679" fill-opacity=".7098"/>
  <path d="m51.545 8.7077-9.8174 5.6699v11.34l9.8174-5.6699z" fill-opacity=".76471"/>
 </g>
 <path d="m41.727 3.0632 9.8174 5.6699-9.8174 5.6699z" fill="#000201" fill-opacity=".87451"/>
 <path d="m51.515 20.021 9.8174 5.6699-9.8174 5.6699z" fill="#000201" fill-opacity=".87451"/>
 <path d="m61.335 37.009-9.8174-5.6699 9.8174-5.6699z" fill="#000301" fill-opacity=".76863"/>
 <path d="m51.545 31.361-9.8174-5.6699 9.8174-5.6699z" fill="#000103" fill-opacity=".93725"/>
 <path d="m66.545 11.307 9.8174 5.6699-9.8174 5.6699z" fill="#000302" fill-opacity=".59216"/>
 <path d="m76.363 16.994-9.8174-5.6699 9.8174-5.6699z" fill="#000301" fill-opacity=".76863"/>
 <path d="m66.545 0.0011413 9.8174 5.6699-9.8174 5.6699z" fill="#000201" fill-opacity=".87451"/>
 <path d="m66.575 11.341-9.8174-5.6699 9.8174-5.6699z" fill="#000104" fill-opacity=".78431"/>
 <path d="m63.873 64.035 19.635-11.34v22.68z" fill="#000301" fill-opacity=".76863"/>
 <path d="m44.297 75.335 19.635 11.34-1.11e-4 -22.679-19.635 11.34" fill="#000302" fill-opacity=".60784"/>
 <path d="m63.931 41.391-1.11e-4 22.68-19.635-11.34z" fill="#000201" fill-opacity=".90588"/>
 <path d="m63.873 41.391 19.635 11.34-19.635 11.34 1.11e-4 -22.68" fill="#000201" fill-opacity=".87451"/>
 <path d="m44.297 52.691v22.68l19.635-11.34z" fill="#000301" fill-opacity=".76863"/>
 <path d="m63.873 86.679 19.635-11.34-19.635-11.34 1.11e-4 22.679" fill="#000301" fill-opacity=".7098"/>
</svg>
